<svg width="97" height="97" viewBox="0 0 97 97" fill="none" xmlns="http://www.w3.org/2000/svg">
<path d="M95.5789 47.0792H72.701V43.8463H78.8735C79.6582 43.8463 80.2944 43.2102 80.2944 42.4254C80.2944 41.6407 79.6582 41.0046 78.8735 41.0046H72.701V37.7716H76.9864C78.5829 37.7716 80.084 37.15 81.2127 36.021L90.5576 26.6761C91.1665 26.9794 91.8416 27.1408 92.5418 27.1408C93.7327 27.1408 94.8521 26.677 95.6943 25.8351C96.5364 24.993 97.0002 23.8735 97.0002 22.6826C97.0002 21.4917 96.5364 20.3722 95.6943 19.5301C94.8523 18.688 93.7327 18.2242 92.5418 18.2242C91.3509 18.2242 90.2314 18.688 89.3893 19.5299C88.5472 20.3721 88.0834 21.4915 88.0834 22.6824C88.0834 23.3826 88.2448 24.0577 88.5481 24.6666L79.2032 34.0115C78.6111 34.6035 77.8238 34.9298 76.9862 34.9298H72.7008V31.7947C72.7008 27.6616 69.3382 24.2992 65.2053 24.2992H62.0702V11.7205C63.8337 11.1258 65.1076 9.45733 65.1076 7.49574C65.1076 5.0374 63.1075 3.03754 60.6494 3.03754C58.1912 3.03754 56.1912 5.03759 56.1912 7.49574C56.1912 9.45733 57.465 11.1256 59.2285 11.7205V24.299H55.9956V18.1265C55.9956 17.3418 55.3595 16.7056 54.5748 16.7056C53.79 16.7056 53.1539 17.3418 53.1539 18.1265V24.299H49.9209V1.42114C49.9209 0.636425 49.2847 0.000244141 48.5 0.000244141C47.7153 0.000244141 47.0791 0.636425 47.0791 1.42114V24.299H43.8463V18.1265C43.8463 17.3418 43.2101 16.7056 42.4254 16.7056C41.6407 16.7056 41.0045 17.3418 41.0045 18.1265V24.299H37.7717V20.0138C37.7717 18.4173 37.1499 16.9163 36.0209 15.7875L26.6728 6.43935C27.4986 4.77198 27.2218 2.69293 25.8352 1.30614C24.0968 -0.432086 21.2685 -0.431897 19.5302 1.30614C17.792 3.04436 17.792 5.8727 19.5302 7.61111C20.3994 8.48013 21.5411 8.91474 22.6827 8.91474C23.3625 8.91474 24.0411 8.75692 24.6634 8.44868L34.0116 17.797C34.6038 18.3891 34.9299 19.1764 34.9299 20.0138V24.299H31.7948C31.1611 24.299 30.5308 24.3786 29.9215 24.5353C29.1616 24.7308 28.7041 25.5055 28.8996 26.2655C29.0951 27.0256 29.87 27.4832 30.6299 27.2874C31.0078 27.1903 31.3996 27.1408 31.7946 27.1408H65.2053C67.7714 27.1408 69.859 29.2286 69.859 31.7945V65.2054C69.859 65.6 69.8098 65.9916 69.7128 66.3692C69.5174 67.1293 69.9751 67.9038 70.735 68.0991C70.8536 68.1296 70.9726 68.1442 71.0899 68.1442C71.7228 68.1442 72.3001 67.7181 72.4649 67.0766C72.6214 66.4681 72.7008 65.8384 72.7008 65.2052V62.0701H85.2793C85.874 63.8336 87.5425 65.1075 89.5041 65.1075C91.9624 65.1075 93.9623 63.1076 93.9623 60.6493C93.9623 58.1909 91.9622 56.1911 89.5041 56.1911C87.5425 56.1911 85.8742 57.4649 85.2793 59.2284H72.7008V55.9954H78.8733C79.6581 55.9954 80.2942 55.3592 80.2942 54.5745C80.2942 53.7897 79.6581 53.1536 78.8733 53.1536H72.7008V49.9209H95.5789C96.3636 49.9209 96.9998 49.2848 96.9998 48.5001C96.9998 47.7153 96.3636 47.0792 95.5789 47.0792ZM91.3986 21.5397C91.704 21.2343 92.1098 21.0662 92.5416 21.0662C92.9733 21.0662 93.3792 21.2343 93.6845 21.5397C93.9899 21.8451 94.158 22.2509 94.158 22.6826C94.158 23.1144 93.9899 23.5202 93.6845 23.8256C93.3792 24.131 92.9733 24.299 92.5416 24.299C92.1098 24.299 91.704 24.131 91.3986 23.8256C91.0932 23.5202 90.9252 23.1144 90.9252 22.6826C90.9252 22.2509 91.0932 21.8449 91.3986 21.5397ZM23.8255 5.60178C23.1954 6.23171 22.1699 6.2319 21.5394 5.60159C20.9091 4.97129 20.9091 3.94578 21.5394 3.31566C21.8546 3.00041 22.2684 2.84298 22.6825 2.84298C23.0965 2.84298 23.5104 3.0006 23.8255 3.31566C24.4558 3.94597 24.4558 4.97147 23.8255 5.60178ZM60.6494 9.11215C59.7582 9.11215 59.0329 8.38692 59.0329 7.49574C59.0329 6.60455 59.758 5.87933 60.6494 5.87933C61.5407 5.87933 62.2658 6.60455 62.2658 7.49574C62.2658 8.38692 61.5405 9.11215 60.6494 9.11215ZM89.5043 59.033C90.3957 59.033 91.1207 59.7583 91.1207 60.6494C91.1207 61.5408 90.3955 62.2659 89.5043 62.2659C88.6131 62.2659 87.8879 61.5406 87.8879 60.6494C87.8877 59.7581 88.6129 59.033 89.5043 59.033Z" fill="#A1BE8B"/>
<path d="M77.4697 89.3892C76.0831 88.0024 74.0039 87.7257 72.3365 88.5515L62.9884 79.2031C62.3961 78.6111 62.0701 77.8237 62.0701 76.9863V72.7011H65.2052C65.8389 72.7011 66.469 72.6215 67.0781 72.4649C67.838 72.2694 68.2955 71.4947 68.1 70.7346C67.9045 69.9747 67.1302 69.5172 66.3697 69.7127C65.992 69.8099 65.6002 69.8591 65.2052 69.8591H31.7945C29.2283 69.8591 27.1408 67.7714 27.1408 65.2054V31.7947C27.1408 31.3997 27.19 31.0079 27.2872 30.6304C27.4829 29.8705 27.0254 29.0958 26.2655 28.9001C25.5054 28.7044 24.7307 29.1619 24.5352 29.9218C24.3784 30.5307 24.299 31.1608 24.299 31.7947V34.9298H11.7203C11.1256 33.1664 9.45708 31.8925 7.49549 31.8925C5.03716 31.8925 3.0373 33.8923 3.0373 36.3507C3.0373 38.809 5.03735 40.8089 7.49549 40.8089C9.45708 40.8089 11.1254 39.535 11.7203 37.7716H24.2988V41.0046H18.1262C17.3415 41.0046 16.7053 41.6408 16.7053 42.4255C16.7053 43.2102 17.3415 43.8464 18.1262 43.8464H24.2988V47.0792H1.42089C0.636181 47.0792 0 47.7154 0 48.5001C0 49.2848 0.636181 49.921 1.42089 49.921H24.2988V53.1538H18.1262C17.3415 53.1538 16.7053 53.79 16.7053 54.5747C16.7053 55.3594 17.3415 55.9956 18.1262 55.9956H24.2988V59.2286H20.0134C18.4169 59.2286 16.9158 59.8502 15.7871 60.9791L6.44214 70.3241C5.83324 70.0207 5.15822 69.8593 4.458 69.8593C3.26711 69.8593 2.14763 70.3231 1.30552 71.165C0.463779 72.0072 0 73.1268 0 74.3175C0 75.5082 0.463779 76.6279 1.3059 77.47C2.14782 78.3121 3.26749 78.7757 4.45838 78.7757C5.64928 78.7757 6.76875 78.3119 7.61087 77.47C8.45299 76.6279 8.91677 75.5084 8.91677 74.3175C8.91677 73.6173 8.75535 72.9423 8.45204 72.3334L17.797 62.9885C18.389 62.3964 19.1764 62.0702 20.0139 62.0702H24.2994V65.2052C24.2994 69.3383 27.6619 72.7007 31.7948 72.7007H34.9299V85.2792C33.1665 85.8739 31.8926 87.5424 31.8926 89.504C31.8926 91.9624 33.8927 93.9622 36.3508 93.9622C38.8089 93.9622 40.809 91.9622 40.809 89.504C40.809 87.5424 39.5351 85.8741 37.7717 85.2792V72.7007H41.0045V78.8733C41.0045 79.658 41.6407 80.2942 42.4254 80.2942C43.2101 80.2942 43.8463 79.658 43.8463 78.8733V72.7007H47.0789V95.579C47.0789 96.3637 47.7151 96.9999 48.4998 96.9999C49.2845 96.9999 49.9207 96.3637 49.9207 95.579V72.7011H53.1535V78.8737C53.1535 79.6584 53.7897 80.2946 54.5744 80.2946C55.3591 80.2946 55.9953 79.6584 55.9953 78.8737V72.7011H59.2281V76.9863C59.2281 78.5829 59.8499 80.0839 60.9788 81.2127L70.327 90.5608C69.5012 92.2282 69.778 94.3072 71.1648 95.694C72.0338 96.5632 73.1756 96.9976 74.3172 96.9976C75.4589 96.9976 76.6007 96.5632 77.4697 95.694C79.208 93.9558 79.208 91.1275 77.4697 89.3892ZM7.49549 37.9671C6.60412 37.9671 5.87909 37.2419 5.87909 36.3507C5.87909 35.4593 6.60431 34.7343 7.49549 34.7343C8.38668 34.7343 9.1119 35.4595 9.1119 36.3507C9.11209 37.2421 8.38687 37.9671 7.49549 37.9671ZM5.60116 75.4605C5.29576 75.7659 4.88996 75.9339 4.45819 75.9339C4.02643 75.9339 3.62062 75.7659 3.31523 75.4605C3.00983 75.1551 2.84179 74.7493 2.84179 74.3175C2.84179 73.8858 3.00983 73.48 3.31523 73.1746C3.62062 72.8692 4.02643 72.7011 4.45819 72.7011C4.88996 72.7011 5.29576 72.8692 5.60116 73.1746C5.90656 73.48 6.0746 73.8858 6.0746 74.3175C6.0746 74.7493 5.90656 75.1553 5.60116 75.4605ZM37.9668 89.5044C37.9668 90.3956 37.2418 91.1208 36.3504 91.1208C35.459 91.1208 34.734 90.3956 34.734 89.5044C34.734 88.6132 35.4592 87.888 36.3504 87.888C37.2416 87.888 37.9668 88.6132 37.9668 89.5044ZM75.4604 93.6847C74.8301 94.315 73.8046 94.3148 73.1743 93.6847C72.544 93.0544 72.544 92.0289 73.1743 91.3988C73.4895 91.0837 73.9035 90.9261 74.3174 90.9261C74.7314 90.9261 75.1453 91.0837 75.4604 91.3988C76.0905 92.0289 76.0905 93.0544 75.4604 93.6847Z" fill="#A1BE8B"/>
<path d="M63.5886 44.7035C63.5886 41.6647 61.366 39.0906 58.3232 38.2541C58.4132 37.8826 58.4632 37.5005 58.4632 37.11C58.4632 34.233 55.9095 31.8923 52.7711 31.8923C51.0709 31.8923 49.5438 32.5799 48.4999 33.6666C47.456 32.5799 45.9286 31.8923 44.2287 31.8923C41.09 31.8923 38.5366 34.233 38.5366 37.11C38.5366 37.5005 38.5866 37.8826 38.6766 38.2541C35.6338 39.0904 33.4111 41.6645 33.4111 44.7035C33.4111 46.1886 33.9367 47.5898 34.9076 48.747C33.9583 49.9759 33.4111 51.4679 33.4111 53.0562C33.4108 55.4721 34.7017 57.728 36.8279 59.1272C36.8279 59.1284 36.8279 59.1295 36.8279 59.1307C36.8279 62.4264 39.7646 65.1077 43.3744 65.1077C45.4489 65.1077 47.2997 64.2212 48.4999 62.8424C49.7001 64.2212 51.5508 65.1077 53.6253 65.1077C57.0993 65.1077 59.9485 62.624 60.158 59.4995C62.268 58.2753 63.5886 56.1309 63.5886 53.8154C63.5886 52.1122 62.8625 50.4875 61.6126 49.2594C62.8623 48.0314 63.5886 46.4065 63.5886 44.7035ZM58.5598 50.5159C59.929 51.2385 60.7463 52.472 60.7463 53.8154C60.7463 54.817 60.2808 55.7724 59.4946 56.4868C58.7475 55.1037 57.4273 54.0026 55.7591 53.4785C55.0108 53.2434 54.213 53.6597 53.9777 54.4082C53.7424 55.1569 54.1588 55.9545 54.9073 56.1896C56.3559 56.6449 57.3293 57.8268 57.3293 59.1308C57.3293 60.8596 55.6674 62.2661 53.6246 62.2661C51.5819 62.2661 49.92 60.8596 49.92 59.1308V50.0188C49.92 48.29 51.5819 46.8837 53.6246 46.8837C54.4093 46.8837 55.0455 46.2475 55.0455 45.4628C55.0455 44.6781 54.4093 44.0419 53.6246 44.0419C52.2503 44.0419 50.9741 44.4314 49.92 45.0947V43.2797C49.92 42.495 49.2838 41.8589 48.4991 41.8589C47.7144 41.8589 47.0782 42.495 47.0782 43.2797V51.168C46.6 50.8679 46.0756 50.6195 45.5084 50.4412C44.7593 50.2059 43.9621 50.6224 43.727 51.3707C43.4917 52.1194 43.9079 52.917 44.6565 53.1523C46.105 53.6076 47.0782 54.7895 47.0782 56.0934V59.1307C47.0782 60.8594 45.4164 62.2659 43.3737 62.2659C41.3308 62.2659 39.6689 60.8594 39.6689 59.1307C39.6689 58.3897 39.983 57.6694 40.5533 57.1026C41.1099 56.5494 41.1126 55.6497 40.5594 55.093C40.0062 54.5364 39.1066 54.5338 38.55 55.087C38.2096 55.4255 37.9165 55.7954 37.6729 56.1885C36.7756 55.3397 36.2518 54.2231 36.2518 53.0559C36.2518 50.9507 37.904 49.1012 40.2697 48.5585C41.0345 48.383 41.5123 47.6207 41.3369 46.8558C41.1614 46.0908 40.3989 45.6132 39.6343 45.7887C38.6819 46.0071 37.8051 46.3718 37.0276 46.8505C36.5235 46.2174 36.252 45.4759 36.252 44.7031C36.2525 42.5659 38.2785 40.826 40.7761 40.8095C40.7888 40.8099 40.8015 40.8116 40.814 40.8116C41.1383 40.8116 41.4644 40.7011 41.7313 40.4751C42.276 40.014 42.3853 39.2315 42.0197 38.6429C42.0089 38.6255 41.999 38.6077 41.9876 38.5908C41.9818 38.5823 41.9748 38.5741 41.9687 38.5656C41.9467 38.5347 41.9242 38.5044 41.8997 38.4752C41.899 38.4743 41.8984 38.4733 41.8977 38.4726C41.6606 38.1924 41.3778 37.7286 41.3778 37.1099C41.3778 35.7998 42.6566 34.7339 44.2281 34.7339C45.7996 34.7339 47.0784 35.7998 47.0784 37.1099C47.0784 37.8946 47.7146 38.5307 48.4993 38.5307C49.284 38.5307 49.9202 37.8946 49.9202 37.1099C49.9202 35.7998 51.199 34.7339 52.7705 34.7339C54.342 34.7339 55.6208 35.7998 55.6208 37.1099C55.6208 37.46 55.5291 37.7585 55.4077 38.0041C54.5995 38.0804 53.8178 38.2757 53.0757 38.5887C52.3526 38.8935 52.0137 39.7269 52.3185 40.4501C52.6233 41.173 53.4567 41.5123 54.1798 41.2073C54.7941 40.9483 55.4549 40.8152 56.1441 40.8099C56.1577 40.8102 56.1712 40.8116 56.1848 40.8116C56.1975 40.8116 56.21 40.8099 56.2227 40.8095C58.7203 40.8258 60.7463 42.5659 60.7463 44.7031C60.7463 46.0465 59.929 47.2798 58.5598 48.0026C58.0938 48.2485 57.802 48.7322 57.802 49.2592C57.802 49.7863 58.0938 50.27 58.5598 50.5159Z" fill="#A1BE8B"/>
</svg>
