<svg width="95" height="93" viewBox="0 0 95 93" fill="none" xmlns="http://www.w3.org/2000/svg">
<path d="M94.8169 50.8882C93.9639 42.3087 90.131 34.2204 84.0238 28.1131C78.8047 22.8941 72.4165 19.5403 65.6948 18.049V13.3346C68.4402 12.6516 70.4809 10.1665 70.4809 7.21274C70.4809 3.73406 67.6509 0.904053 64.1722 0.904053H50.8126C47.3339 0.904053 44.5039 3.73406 44.5039 7.21274C44.5039 10.1663 46.5446 12.6514 49.2898 13.3346V18.0622C42.5887 19.5598 36.2217 22.909 31.0174 28.1133C29.8785 29.2522 28.8283 30.4469 27.867 31.6886C27.8204 31.6851 27.7738 31.6816 27.7263 31.6816H14.5039C13.4793 31.6816 12.6484 32.5123 12.6484 33.5371C12.6484 34.5619 13.4793 35.3926 14.5039 35.3926H25.3422C23.9818 37.6702 22.8848 40.0621 22.0498 42.5244H1.8555C0.830892 42.5244 0 43.3551 0 44.3798C0 45.4046 0.830892 46.2353 1.8555 46.2353H21.0013C20.4665 48.5827 20.1596 50.9717 20.0804 53.3673H11.8752C10.8506 53.3673 10.0197 54.198 10.0197 55.2228C10.0197 56.2476 10.8506 57.0783 11.8752 57.0783H20.1396C20.2962 59.4801 20.6823 61.8692 21.2981 64.2103H9.27749C8.25288 64.2103 7.42199 65.041 7.42199 66.0658C7.42199 67.0906 8.25288 67.9213 9.27749 67.9213H22.4823C24.3026 72.7365 27.1472 77.2496 31.0174 81.1198C37.1305 87.2329 45.2272 91.0668 53.8156 91.9153C55.0413 92.0363 56.268 92.0962 57.493 92.0962C64.7335 92.0962 71.882 90.0008 77.9476 86.0508C78.8063 85.4916 79.0492 84.3421 78.49 83.4833C77.9307 82.6246 76.7812 82.3817 75.9225 82.941C62.6451 91.587 44.8633 89.7176 33.6415 78.4958C20.4745 65.3288 20.4745 43.9047 33.6415 30.7375C46.8083 17.5707 68.2324 17.5707 81.3996 30.7375C92.6066 41.9447 94.4862 59.7113 85.8687 72.9822C85.3106 73.8416 85.555 74.9909 86.4142 75.5489C87.2741 76.107 88.423 75.8626 88.9809 75.0032C93.5852 67.9124 95.6578 59.3483 94.8169 50.8882ZM48.2149 7.21293C48.2149 5.78049 49.3802 4.61523 50.8126 4.61523H64.1722C65.6046 4.61523 66.7699 5.78049 66.7699 7.21293C66.7699 8.64537 65.6046 9.81063 64.1722 9.81063H63.8393H51.1453H50.8126C49.3802 9.81063 48.2149 8.64519 48.2149 7.21293ZM53.0008 17.4243V13.5216H61.9838V17.4176C59.0009 17.0628 55.9831 17.0651 53.0008 17.4243Z" fill="#A1BE8B"/>
<path d="M82.7124 77.9514C82.2226 77.9514 81.7457 78.1499 81.4008 78.4951C81.0538 78.8402 80.8569 79.3189 80.8569 79.8069C80.8569 80.2949 81.0538 80.7736 81.4008 81.1187C81.7457 81.4657 82.2227 81.6624 82.7124 81.6624C83.2004 81.6624 83.6772 81.4657 84.0242 81.1187C84.3693 80.7736 84.5679 80.2949 84.5679 79.8069C84.5679 79.3189 84.3695 78.8402 84.0242 78.4951C83.6772 78.1499 83.2002 77.9514 82.7124 77.9514Z" fill="#A1BE8B"/>
<path d="M57.5205 25.832C41.6489 25.832 28.7363 38.7444 28.7363 54.6162C28.7363 70.4879 41.6489 83.4003 57.5205 83.4003C73.3921 83.4003 86.3046 70.4879 86.3046 54.6162C86.3046 38.7444 73.3921 25.832 57.5205 25.832ZM57.5205 79.6893C43.695 79.6893 32.4473 68.4415 32.4473 54.6162C32.4473 40.7909 43.695 29.543 57.5205 29.543C71.346 29.543 82.5937 40.7909 82.5937 54.6162C82.5937 68.4415 71.346 79.6893 57.5205 79.6893Z" fill="#A1BE8B"/>
<path d="M69.2576 40.2551L60.0673 49.4452C59.2988 49.0652 58.4343 48.8505 57.5205 48.8505C56.6065 48.8505 55.7422 49.0652 54.9736 49.4452L50.8605 45.3321C50.1358 44.6075 48.9612 44.6075 48.2363 45.3321C47.5117 46.0567 47.5117 47.2316 48.2363 47.9562L52.3494 52.0692C51.9692 52.8378 51.7547 53.7023 51.7547 54.6161C51.7547 57.7953 54.3411 60.3819 57.5205 60.3819C60.6999 60.3819 63.2862 57.7953 63.2862 54.6161C63.2862 53.7023 63.0716 52.8378 62.6916 52.0692L71.612 43.1487L71.8816 42.8791C72.6062 42.1546 72.6062 40.9797 71.8816 40.2551C71.1571 39.5305 69.9825 39.5305 69.2576 40.2551ZM57.5205 56.6711C56.3875 56.6711 55.4657 55.7493 55.4657 54.6163C55.4657 53.4833 56.3875 52.5615 57.5205 52.5615C58.6534 52.5615 59.5752 53.4833 59.5752 54.6163C59.5752 55.7493 58.6534 56.6711 57.5205 56.6711Z" fill="#A1BE8B"/>
<path d="M77.3592 52.7834H75.6401C74.6155 52.7834 73.7847 53.6141 73.7847 54.6389C73.7847 55.6637 74.6155 56.4944 75.6401 56.4944H77.3592C78.3838 56.4944 79.2147 55.6637 79.2147 54.6389C79.2147 53.6141 78.3838 52.7834 77.3592 52.7834Z" fill="#A1BE8B"/>
<path d="M39.4005 52.7383H37.6816C36.6571 52.7383 35.8262 53.569 35.8262 54.5938C35.8262 55.6185 36.6571 56.4492 37.6816 56.4492H39.4005C40.4251 56.4492 41.256 55.6185 41.256 54.5938C41.256 53.569 40.4251 52.7383 39.4005 52.7383Z" fill="#A1BE8B"/>
<path d="M57.5435 38.352C58.568 38.352 59.3989 37.5213 59.3989 36.4965V34.7776C59.3989 33.7528 58.568 32.9221 57.5435 32.9221C56.5189 32.9221 55.688 33.7528 55.688 34.7776V36.4965C55.688 37.5213 56.5189 38.352 57.5435 38.352Z" fill="#A1BE8B"/>
<path d="M57.498 70.8806C56.4735 70.8806 55.6426 71.7113 55.6426 72.7361V74.455C55.6426 75.4798 56.4735 76.3105 57.498 76.3105C58.5226 76.3105 59.3535 75.4798 59.3535 74.455V72.7361C59.3535 71.7113 58.5226 70.8806 57.498 70.8806Z" fill="#A1BE8B"/>
<path d="M1.85547 64.2095C1.36748 64.2095 0.88877 64.408 0.543652 64.7531C0.198535 65.0982 0 65.577 0 66.0649C0 66.5548 0.19835 67.0316 0.543652 67.3768C0.888955 67.7219 1.36748 67.9204 1.85547 67.9204C2.34346 67.9204 2.82217 67.7219 3.1671 67.3768C3.51222 67.0316 3.71094 66.5529 3.71094 66.0649C3.71094 65.577 3.5124 65.0982 3.1671 64.7531C2.82217 64.408 2.34346 64.2095 1.85547 64.2095Z" fill="#A1BE8B"/>
</svg>
