<svg width="54" height="54" viewBox="0 0 54 54" fill="none" xmlns="http://www.w3.org/2000/svg">
<rect width="54" height="54" rx="27" fill="#E5E5E5"/>
<path d="M31.62 21.21C31.5165 21.128 31.3977 21.0674 31.2707 21.0315C31.1436 20.9957 31.0107 20.9854 30.8796 21.0012C30.7485 21.017 30.6218 21.0586 30.5069 21.1236C30.392 21.1886 30.2911 21.2758 30.21 21.38L23.21 30.38L19.78 26.2C19.6995 26.0929 19.5984 26.003 19.4825 25.9358C19.3667 25.8685 19.2385 25.8252 19.1056 25.8085C18.9727 25.7917 18.8378 25.8018 18.7089 25.8382C18.58 25.8746 18.4597 25.9365 18.3552 26.0202C18.2506 26.104 18.164 26.2079 18.1004 26.3258C18.0368 26.4437 17.9975 26.5731 17.9849 26.7065C17.9723 26.8399 17.9866 26.9744 18.027 27.1021C18.0674 27.2298 18.133 27.3481 18.22 27.45L22.39 32.63C22.4841 32.746 22.603 32.8395 22.738 32.9035C22.873 32.9675 23.0206 33.0005 23.17 33C23.3286 33.0071 23.4866 32.9763 23.6309 32.9102C23.7752 32.8441 23.9017 32.7447 24 32.62L31.83 22.62C31.9098 22.514 31.9678 22.3932 32.0004 22.2646C32.0331 22.136 32.0399 22.0022 32.0203 21.871C32.0008 21.7398 31.9553 21.6137 31.8866 21.5003C31.8179 21.3868 31.7272 21.2881 31.62 21.21Z" fill="#65B4A1"/>
<path d="M36.6198 21.21C36.5163 21.128 36.3976 21.0674 36.2705 21.0315C36.1434 20.9957 36.0105 20.9854 35.8794 21.0012C35.7483 21.017 35.6217 21.0586 35.5068 21.1236C35.3918 21.1886 35.2909 21.2758 35.2098 21.38L28.2098 30.38L27.5998 29.63L26.3398 31.25L27.4398 32.62C27.534 32.736 27.6529 32.8295 27.7879 32.8935C27.9228 32.9575 28.0704 32.9905 28.2198 32.99C28.37 32.9893 28.5182 32.9548 28.6532 32.889C28.7882 32.8232 28.9067 32.7278 28.9998 32.61L36.8298 22.61C36.9081 22.5043 36.9648 22.3843 36.9966 22.2567C37.0284 22.1291 37.0347 21.9965 37.0152 21.8664C36.9957 21.7364 36.9507 21.6115 36.8829 21.4988C36.8151 21.3862 36.7257 21.288 36.6198 21.21Z" fill="#65B4A1"/>
<path d="M23.7098 28.06L24.9998 26.44L24.7998 26.2C24.7209 26.0906 24.6206 25.9984 24.5051 25.9287C24.3895 25.8591 24.2611 25.8136 24.1275 25.7949C23.9939 25.7762 23.8579 25.7848 23.7277 25.82C23.5975 25.8553 23.4757 25.9165 23.3698 26C23.2671 26.0825 23.1817 26.1845 23.1185 26.3002C23.0553 26.4158 23.0156 26.5428 23.0017 26.6738C22.9878 26.8049 22.9999 26.9373 23.0373 27.0637C23.0747 27.19 23.1368 27.3077 23.2198 27.41L23.7098 28.06Z" fill="#65B4A1"/>
</svg>
