<svg width="95" height="95" viewBox="0 0 95 95" fill="none" xmlns="http://www.w3.org/2000/svg">
<path d="M93.2197 84.6352L71.251 62.6638V13.8542C71.251 10.5751 68.5926 7.91673 65.3135 7.91673H25.5319C24.6149 3.39978 20.6217 0 15.8342 0C11.0468 0 7.0538 3.39978 6.13683 7.91673H5.93848C2.65931 7.91673 0.000976562 10.5751 0.000976562 13.8542V89.0625C0.000976562 92.3417 2.65931 95 5.93848 95H65.3135C68.5926 95 71.251 92.3417 71.251 89.0625V79.8353L84.6361 93.2188C85.7732 94.361 87.3191 95.0022 88.931 95C90.5419 94.9998 92.0866 94.3593 93.2249 93.2195C95.594 90.8476 95.5918 87.0042 93.2197 84.6352ZM15.8342 3.95827C18.4193 3.95827 20.6173 5.61075 21.4326 7.91654H10.2361C11.0512 5.61075 13.2492 3.95827 15.8342 3.95827ZM67.2927 89.0625C67.2927 90.1556 66.4065 91.0417 65.3135 91.0417H5.93848C4.84542 91.0417 3.95925 90.1556 3.95925 89.0625V13.8542C3.95925 12.7612 4.84542 11.875 5.93848 11.875H21.7717V33.6458C21.7717 34.7388 20.8856 35.625 19.7925 35.625C18.6995 35.625 17.8133 34.7388 17.8133 33.6458V15.8333H13.8552V33.6458C13.8552 36.9249 16.5135 39.5833 19.7927 39.5833C23.0719 39.5833 25.7302 36.9249 25.7302 33.6458V11.875H65.3135C66.4065 11.875 67.2927 12.7612 67.2927 13.8542V58.7052L61.3552 52.7669V17.8125C61.3552 16.7194 60.469 15.8333 59.376 15.8333H29.6885V19.7915H57.3967V49.2404L46.4064 43.7575C45.8485 43.4779 45.1913 43.4779 44.6334 43.7575C44.5272 43.8106 44.4294 43.8735 44.3374 43.942L44.3342 43.9377L38.7174 48.1453L35.5506 37.0621C35.4582 36.7379 35.2848 36.4427 35.0463 36.2045C34.2732 35.4317 33.0202 35.432 32.2474 36.205L26.8899 41.5625H11.876C10.7829 41.5625 9.89675 42.4487 9.89675 43.5417V85.1042C9.89675 86.1973 10.7829 87.0835 11.876 87.0835H59.376C60.469 87.0835 61.3552 86.1973 61.3552 85.1042V69.9406L67.2927 75.8773V89.0625ZM51.8511 53.7563L49.9433 49.9442L53.7565 51.8509L51.8511 53.7563ZM57.3967 65.9825V83.125H13.8552V45.5208H27.7094C28.233 45.5211 28.7355 45.3141 29.1068 44.9448L32.6693 41.3823L35.7013 52.0006C35.7677 52.2337 35.8763 52.4528 36.0217 52.6465C36.6778 53.5208 37.9184 53.6976 38.7927 53.0415L44.8085 48.5298L49.5375 57.9895L49.5425 57.9871C49.6349 58.1706 49.7565 58.343 49.9096 58.4963L57.3967 65.9825ZM54.1074 57.097L57.0978 54.1066L83.2429 80.2514L80.2524 83.2419L54.1074 57.097ZM90.4252 90.4242C89.5993 91.2501 88.2604 91.2501 87.4347 90.4242L83.0514 86.0409L86.0418 83.0504L90.425 87.4336C91.2511 88.2595 91.2511 89.5984 90.4252 90.4242Z" fill="#A1BE8B"/>
</svg>
