<svg width="96" height="96" viewBox="0 0 96 96" fill="none" xmlns="http://www.w3.org/2000/svg">
<path d="M72.001 54V9.99994C71.9944 4.47994 67.521 0.0065625 62.001 0H18.001C17.4705 0.0001875 16.962 0.210938 16.587 0.585938L0.586914 16.5861C0.211914 16.9611 0.000976562 17.4697 0.000976562 18V86.0001C0.00753906 91.5201 4.48091 95.9934 10.0009 96H62.0008C67.521 95.9934 71.9942 91.5201 72.0008 86.0001V82.0001H68.0008V86.0001C68.0008 89.3138 65.3145 92.0001 62.0008 92.0001H10.0009C6.68723 92.0001 4.00091 89.3138 4.00091 86.0001V18.828L18.829 3.99994H62.001C65.3147 3.99994 68.001 6.68625 68.001 9.99994V54H72.001Z" fill="#A1BE8B"/>
<path d="M16 2.00012V14.0001C16 15.1047 15.1045 16.0002 13.9999 16.0002H10V20.0001H13.9999C17.3136 20.0001 19.9999 17.3138 19.9999 14.0001V2.00012H16Z" fill="#A1BE8B"/>
<path d="M95.4141 48.1239L89.8761 42.5859C89.0952 41.8052 87.8292 41.8052 87.048 42.5859L56.5861 73.0479C55.8053 73.8289 55.8053 75.0949 56.5861 75.876L62.1241 81.414C62.4991 81.7892 63.0077 81.9999 63.538 81.9999C64.0684 81.9998 64.5769 81.789 64.9519 81.414L95.4139 50.952C96.1949 50.1711 96.1949 48.9051 95.4141 48.1239ZM63.538 77.172L60.828 74.4621L88.462 46.8281L91.1719 49.5381L63.538 77.172Z" fill="#A1BE8B"/>
<path d="M60.0004 77.9999V74H56.0005V80C56.0005 81.1046 56.896 82.0001 58.0005 82.0001H64.0005V77.9999H60.0004Z" fill="#A1BE8B"/>
<path d="M57.9999 8.00012H54V12.0001H57.9999C59.1045 12.0001 60 12.8956 60 14.0001V18.0001H63.9999V14.0001C64.0001 10.6864 61.3138 8.00012 57.9999 8.00012Z" fill="#A1BE8B"/>
<path d="M51.9999 27.9999H20.0001C18.8955 27.9999 18 28.8954 18 29.9999V57.9999C17.9985 58.7647 18.4331 59.4633 19.1199 59.7999L33.03 66.5999C33.9439 67.1219 34.9776 67.3978 36.03 67.4C37.0224 67.4064 37.9995 67.1534 38.8641 66.6659L52.8801 59.7999C53.5669 59.4633 54.0017 58.7647 54 57.9999V29.9999C54 28.8954 53.1045 27.9999 51.9999 27.9999ZM50.0001 56.7519L36.9921 63.1299C36.3338 63.4893 35.5328 63.4663 34.896 63.0699L21.9999 56.7519V32H49.9999V56.7519H50.0001Z" fill="#A1BE8B"/>
<path d="M44.5861 38.8899L34.0001 49.476L29.414 44.8899L26.5859 47.718L32.5859 53.718C32.9609 54.093 33.4696 54.3039 33.9999 54.3039C34.5303 54.3037 35.0388 54.093 35.4138 53.718L47.4138 41.718L44.5861 38.8899Z" fill="#A1BE8B"/>
<path d="M40 78C38.8954 78 37.9999 77.1045 37.9999 75.9999V72H34V75.9999C34 79.3136 36.6863 81.9999 40 81.9999H52V78H40Z" fill="#A1BE8B"/>
<path d="M49.9999 8.00012H46V12.0001H49.9999V8.00012Z" fill="#A1BE8B"/>
</svg>
