<svg width="128" height="128" viewBox="0 0 128 128" fill="none" xmlns="http://www.w3.org/2000/svg">
<g opacity="0.8">
<path d="M120.9 110.345H7.09959C3.17793 110.345 0 107.167 0 103.245V24.7549C0 20.8332 3.17793 17.6553 7.09959 17.6553H120.9C124.822 17.6553 128 20.8332 128 24.7549V103.245C128 107.167 124.822 110.345 120.9 110.345Z" fill="#D1D4D2"/>
<path d="M128 28.6899H0V46.3451H128V28.6899Z" fill="#A5A5A4"/>
<path d="M33.1033 61.7932H15.4481C14.2299 61.7932 13.2412 60.8045 13.2412 59.5863C13.2412 58.3681 14.2299 57.3794 15.4481 57.3794H33.1033C34.3215 57.3794 35.3102 58.3681 35.3102 59.5863C35.3102 60.8045 34.3215 61.7932 33.1033 61.7932Z" fill="white"/>
<path d="M59.5867 61.7932H41.9315C40.7133 61.7932 39.7246 60.8045 39.7246 59.5863C39.7246 58.3681 40.7133 57.3794 41.9315 57.3794H59.5867C60.8049 57.3794 61.7936 58.3681 61.7936 59.5863C61.7936 60.8045 60.8049 61.7932 59.5867 61.7932Z" fill="white"/>
<path d="M17.655 72.8279H15.4481C14.2299 72.8279 13.2412 71.8392 13.2412 70.621C13.2412 69.4028 14.2299 68.4141 15.4481 68.4141H17.655C18.8732 68.4141 19.8619 69.4028 19.8619 70.621C19.8619 71.8392 18.8732 72.8279 17.655 72.8279Z" fill="white"/>
<path d="M30.8961 72.8279H26.4823C25.2641 72.8279 24.2754 71.8392 24.2754 70.621C24.2754 69.4028 25.2641 68.4141 26.4823 68.4141H30.8961C32.1143 68.4141 33.103 69.4028 33.103 70.621C33.103 71.8392 32.1143 72.8279 30.8961 72.8279Z" fill="white"/>
<path d="M41.9314 72.8279H39.7245C38.5063 72.8279 37.5176 71.8392 37.5176 70.621C37.5176 69.4028 38.5063 68.4141 39.7245 68.4141H41.9314C43.1496 68.4141 44.1383 69.4028 44.1383 70.621C44.1383 71.8392 43.1496 72.8279 41.9314 72.8279Z" fill="white"/>
<path d="M55.1724 72.8279H50.7587C49.5404 72.8279 48.5518 71.8392 48.5518 70.621C48.5518 69.4028 49.5404 68.4141 50.7587 68.4141H55.1724C56.3907 68.4141 57.3793 69.4028 57.3793 70.621C57.3793 71.8392 56.3907 72.8279 55.1724 72.8279Z" fill="white"/>
<path d="M63.9999 72.8276C63.4261 72.8276 62.8523 72.5848 62.433 72.1876C62.0357 71.7683 61.793 71.2166 61.793 70.6207C61.793 70.0469 62.0357 69.4731 62.433 69.0538C63.2495 68.2373 64.7502 68.2373 65.5668 69.0538C65.964 69.4731 66.2068 70.0469 66.2068 70.6207C66.2068 71.1945 65.964 71.7683 65.5668 72.1876C65.1474 72.5848 64.5737 72.8276 63.9999 72.8276Z" fill="white"/>
<path d="M103.724 72.8279H101.517C100.299 72.8279 99.3105 71.8392 99.3105 70.621C99.3105 69.4028 100.299 68.4141 101.517 68.4141H103.724C104.943 68.4141 105.931 69.4028 105.931 70.621C105.931 71.8392 104.943 72.8279 103.724 72.8279Z" fill="white"/>
<path d="M112.552 72.8276C111.978 72.8276 111.404 72.5848 110.985 72.1876C110.587 71.7683 110.345 71.1945 110.345 70.6207C110.345 70.0469 110.587 69.4731 110.985 69.0538C111.801 68.2373 113.302 68.2373 114.119 69.0538C114.516 69.4731 114.759 70.0469 114.759 70.6207C114.759 71.1945 114.516 71.7683 114.119 72.1876C113.699 72.5848 113.125 72.8276 112.552 72.8276Z" fill="white"/>
<path d="M86.0691 61.7932H68.4139C67.1957 61.7932 66.207 60.8045 66.207 59.5863C66.207 58.3681 67.1957 57.3794 68.4139 57.3794H86.0691C87.2873 57.3794 88.276 58.3681 88.276 59.5863C88.276 60.8045 87.2873 61.7932 86.0691 61.7932Z" fill="white"/>
<path d="M112.552 61.7932H94.8964C93.6781 61.7932 92.6895 60.8045 92.6895 59.5863C92.6895 58.3681 93.6781 57.3794 94.8964 57.3794H112.552C113.77 57.3794 114.758 58.3681 114.758 59.5863C114.758 60.8045 113.77 61.7932 112.552 61.7932Z" fill="white"/>
<path d="M83.8625 72.8279H72.828C71.6098 72.8279 70.6211 71.8392 70.6211 70.621C70.6211 69.4028 71.6098 68.4141 72.828 68.4141H83.8625C85.0807 68.4141 86.0694 69.4028 86.0694 70.621C86.0694 71.8392 85.0807 72.8279 83.8625 72.8279Z" fill="white"/>
<path d="M92.6893 72.8276C92.1155 72.8276 91.5417 72.5848 91.1224 72.1876C90.7252 71.7683 90.4824 71.1945 90.4824 70.6207C90.4824 70.0469 90.7252 69.4731 91.1224 69.0538C91.939 68.2373 93.4397 68.2373 94.2562 69.0538C94.6535 69.4731 94.8962 70.0469 94.8962 70.6207C94.8962 71.1945 94.6535 71.7683 94.2562 72.1876C93.8369 72.5848 93.2631 72.8276 92.6893 72.8276Z" fill="white"/>
<path d="M80.9951 80.331C74.7209 83.595 73.8404 90.7321 73.6263 97.1034L77.3935 95.5431C75.33 93.8129 73.2666 92.0827 71.2009 90.3547C69.0404 88.5428 65.8999 91.6479 68.0804 93.4753C70.1438 95.2055 72.2095 96.9335 74.2729 98.6637C75.725 99.8797 77.9739 99.1117 78.0401 97.1034C78.2012 92.3233 78.4263 86.6383 83.2219 84.1423C85.7443 82.8314 83.5132 79.0201 80.9951 80.331Z" fill="#4482C4"/>
<path d="M83.202 90.6596C87.8454 95.7067 93.985 93.3542 99.0476 90.2469C98.0412 89.982 97.0349 89.7194 96.0285 89.4546C97.2225 91.5842 98.9196 93.1291 101.378 93.6256C103.128 93.9787 110.261 91.1098 110.647 91.6372C112.304 93.9081 116.138 91.7078 114.458 89.4104C113.32 87.8502 112.267 87.0182 110.248 86.8902C107.03 86.6871 102.318 91.646 99.8376 87.2278C99.2638 86.2038 97.8227 85.8198 96.8186 86.4356C93.6936 88.3533 89.6109 91.112 86.3226 87.539C84.396 85.4447 81.2798 88.5718 83.202 90.6596Z" fill="#4482C4"/>
<path d="M85.5438 70.5109L71.6825 48.2961C69.9079 45.4518 66.8488 43.7539 63.5 43.7539L57.9922 64.5L63.5 85.2461H77.3613C82.6762 85.2461 87 80.9223 87 75.6074C87 73.8002 86.4966 72.0377 85.5438 70.5109Z" fill="black"/>
<path d="M55.3175 48.2961L41.4562 70.5109C40.5034 72.0377 40 73.8002 40 75.6074C40 80.9223 44.3238 85.2461 49.6387 85.2461H63.5V43.7539C60.1512 43.7539 57.0921 45.4518 55.3175 48.2961Z" fill="#292C32"/>
<path d="M80.8711 73.4265L67.0098 51.212C66.2478 49.9907 64.9358 49.2617 63.5 49.2617L56.6152 64.5L63.5 79.7383H77.3613C79.639 79.7383 81.4922 77.8851 81.4922 75.6074C81.4922 74.8211 81.2831 74.0874 80.8711 73.4265Z" fill="#FFA433"/>
<path d="M59.9902 51.2117L46.1292 73.4265C45.7169 74.087 45.5078 74.8211 45.5078 75.6074C45.5078 77.8851 47.361 79.7383 49.6387 79.7383H63.5V49.2617C62.0642 49.2617 60.7522 49.9907 59.9902 51.2117Z" fill="#FFC43B"/>
<path d="M64.877 58.9004H63.5L62.582 63.7656L63.5 68.6309H64.877V58.9004Z" fill="black"/>
<path d="M62.123 58.9004H63.5V68.6309H62.123V58.9004Z" fill="#292C32"/>
<path d="M64.877 71.3848H63.5L62.582 72.7617L63.5 74.1387H64.877V71.3848Z" fill="black"/>
<path d="M62.123 71.3848H63.5V74.1387H62.123V71.3848Z" fill="#292C32"/>
</g>
</svg>
