<svg width="129" height="129" viewBox="0 0 129 129" fill="none" xmlns="http://www.w3.org/2000/svg">
<g clip-path="url(#clip0)">
<path d="M123.136 82.0907H5.86371C2.63871 82.0907 0 79.452 0 76.227V11.727C0 8.50199 2.63871 5.86328 5.86371 5.86328H123.137C126.362 5.86328 129 8.50199 129 11.727V76.227C129 79.452 126.361 82.0907 123.136 82.0907Z" fill="#0E9347"/>
<path d="M108.477 58.6362C101.734 58.6362 95.5772 61.8612 92.0589 67.1384C89.1272 65.6728 85.9022 64.4999 82.0909 64.4999C71.8296 64.4999 63.3272 72.1228 61.8613 82.0908H123.136C126.068 82.0908 128.413 80.0386 129 77.1067C127.827 66.8454 119.032 58.6362 108.477 58.6362Z" fill="#0D8944"/>
<path d="M111.41 76.2273H17.5914C17.5914 69.7773 12.3143 64.5001 5.86426 64.5001V23.4547C12.3143 23.4547 17.5914 18.1775 17.5914 11.7275H111.41C111.41 18.1775 116.687 23.4547 123.137 23.4547V64.5001C116.687 64.5001 111.41 69.7773 111.41 76.2273Z" fill="#3BB54A"/>
<path d="M108.478 58.6362C101.735 58.6362 95.5778 61.8612 92.0595 67.1384C89.1278 65.6728 85.9028 64.4999 82.0915 64.4999C73.8824 64.4999 66.8461 69.1908 63.6211 76.2271H111.41C111.41 69.7771 116.394 64.793 122.844 64.4999C119.032 60.9817 114.049 58.6362 108.478 58.6362Z" fill="#0E9347"/>
<path d="M64.5005 70.3634C77.4541 70.3634 87.955 58.5499 87.955 43.9771C87.955 29.4044 77.4541 17.5908 64.5005 17.5908C51.5469 17.5908 41.0459 29.4044 41.0459 43.9771C41.0459 58.5499 51.5469 70.3634 64.5005 70.3634Z" fill="#0E9347"/>
<path d="M29.3188 49.8407C32.5572 49.8407 35.1825 47.2154 35.1825 43.977C35.1825 40.7386 32.5572 38.1133 29.3188 38.1133C26.0803 38.1133 23.4551 40.7386 23.4551 43.977C23.4551 47.2154 26.0803 49.8407 29.3188 49.8407Z" fill="#0E9347"/>
<path d="M99.6821 49.8407C102.92 49.8407 105.546 47.2154 105.546 43.977C105.546 40.7386 102.92 38.1133 99.6821 38.1133C96.4436 38.1133 93.8184 40.7386 93.8184 43.977C93.8184 47.2154 96.4436 49.8407 99.6821 49.8407Z" fill="#0E9347"/>
<path d="M67.4313 41.0454H61.5676C59.8085 41.0454 58.6359 39.8725 58.6359 38.1136C58.6359 36.3545 59.8088 35.1819 61.5676 35.1819H70.3631C72.1222 35.1819 73.2948 34.0091 73.2948 32.2502C73.2948 30.491 72.1219 29.3184 70.3631 29.3184H67.4313C67.4313 27.5593 66.2585 26.3867 64.4996 26.3867C62.7405 26.3867 61.5679 27.5596 61.5679 29.3184C56.5838 29.3184 52.7725 33.1297 52.7725 38.1139C52.7725 43.098 56.5838 46.9093 61.5679 46.9093H67.4316C69.1907 46.9093 70.3633 48.0822 70.3633 49.841C70.3633 51.6002 69.1905 52.7728 67.4316 52.7728H58.6362C56.877 52.7728 55.7044 53.9456 55.7044 55.7045C55.7044 57.4636 56.8773 58.6362 58.6362 58.6362H61.5679C61.5679 60.3954 62.7407 61.5679 64.4996 61.5679C66.2587 61.5679 67.4313 60.3951 67.4313 58.6362C72.4155 58.6362 76.2268 54.8249 76.2268 49.8408C76.2268 44.8566 72.4155 41.0454 67.4313 41.0454Z" fill="#89C763"/>
<path d="M76.2269 105.546C87.5614 105.546 96.7498 96.3573 96.7498 85.0228C96.7498 73.6884 87.5614 64.5 76.2269 64.5C64.8925 64.5 55.7041 73.6884 55.7041 85.0228C55.7041 96.3573 64.8925 105.546 76.2269 105.546Z" fill="#FFCA5D"/>
<path d="M102.614 99.6819C113.948 99.6819 123.136 90.4935 123.136 79.1591C123.136 67.8246 113.948 58.6362 102.614 58.6362C91.2792 58.6362 82.0908 67.8246 82.0908 79.1591C82.0908 90.4935 91.2792 99.6819 102.614 99.6819Z" fill="#F6B545"/>
<path d="M102.614 58.6362C91.1795 58.6362 82.0908 67.7249 82.0908 79.1591C82.0908 90.5932 91.1795 99.6819 102.614 99.6819C114.048 99.6819 123.136 90.5932 123.136 79.1591C123.136 67.7249 114.048 58.6362 102.614 58.6362ZM102.614 93.8182C94.4045 93.8182 87.9545 87.3682 87.9545 79.1591C87.9545 70.9499 94.4045 64.4999 102.614 64.4999C110.823 64.4999 117.273 70.9499 117.273 79.1591C117.273 87.3682 110.823 93.8182 102.614 93.8182Z" fill="#FFCB5B"/>
<path d="M102.613 99.3888C114.047 99.682 123.136 90.3 123.136 79.1592H122.843C121.377 79.1592 120.204 80.332 119.911 81.7979C119.325 85.9025 117.272 89.7137 114.341 92.3525C111.995 94.6979 108.77 96.1638 105.252 96.75C103.786 96.75 102.613 97.9229 102.613 99.3888Z" fill="#F6B545"/>
<path d="M102.614 58.9295C91.1795 58.6363 82.0908 68.0183 82.0908 79.1591H82.3841C83.85 79.1591 85.0228 77.9863 85.3158 76.5204C85.9021 72.4159 87.9545 68.6046 90.8862 65.9658C93.2317 63.6204 96.4567 62.1545 99.975 61.568C101.441 61.5683 102.614 60.3954 102.614 58.9295Z" fill="#FFE27A"/>
<path d="M90.0072 81.2113C90.0072 73.0022 96.4572 66.5522 104.666 66.5522C108.185 66.5522 111.41 67.725 114.048 70.0704C111.116 66.5522 107.305 64.5 102.614 64.5C94.4051 64.5 87.9551 70.95 87.9551 79.1591C87.9551 83.85 90.0072 87.6613 93.2322 90.3C91.1801 87.9546 90.0072 84.7296 90.0072 81.2113Z" fill="#F19920"/>
<path d="M111.409 88.2479C111.116 88.2479 110.823 88.2479 110.53 87.9547C109.943 87.3684 109.943 86.4888 110.53 85.9025C112.289 84.1434 113.168 81.5047 113.168 79.1592C113.168 78.2797 113.755 77.6934 114.634 77.6934C115.514 77.6934 116.1 78.2797 116.1 79.1592C116.1 82.3842 114.927 85.6092 112.875 87.9547C112.289 88.2479 111.702 88.2479 111.409 88.2479Z" fill="#FFCB5B"/>
<path d="M102.613 87.9544C100.854 87.9544 99.6816 86.7815 99.6816 85.0227V73.2955C99.6816 71.5364 100.854 70.3638 102.613 70.3638C104.372 70.3638 105.545 71.5366 105.545 73.2955V85.0227C105.545 86.7815 104.373 87.9544 102.613 87.9544Z" fill="#F19920"/>
<path d="M113.461 96.4567C111.409 89.1272 106.132 83.2635 99.3884 80.625C98.2155 73.8817 93.8179 68.0183 88.2475 64.5C84.7292 68.3113 82.3838 73.2954 82.3838 78.8659C82.3838 90.3 91.4725 99.3887 102.907 99.3887C106.718 99.6817 110.236 98.5091 113.461 96.4567Z" fill="#F19920"/>
<path d="M93.2315 90.3C91.1794 87.6613 89.7132 84.4363 89.7132 80.9183C89.7132 76.8137 91.4724 73.0024 94.4041 70.3637C93.8178 69.4841 93.2313 68.8978 92.645 68.3115C89.7132 70.9502 87.9541 74.7615 87.9541 79.1594C87.9544 83.85 90.0065 87.6613 93.2315 90.3Z" fill="#E78825"/>
<path d="M99.6816 80.918V85.0225C99.6816 86.7817 100.854 87.9543 102.613 87.9543C104.372 87.9543 105.545 86.7814 105.545 85.0225V84.4362C103.786 82.9701 101.734 81.7975 99.6816 80.918Z" fill="#E78825"/>
<path d="M113.461 96.4564C112.875 94.4043 112.288 92.6451 111.116 90.886C108.77 92.6451 105.839 93.8177 102.614 93.8177C94.4045 93.8177 87.9545 87.3677 87.9545 79.1586C87.9545 74.7608 89.7137 70.9495 92.6454 68.3108C91.1795 66.8449 89.7137 65.672 87.9545 64.7925C84.4363 68.6038 82.0908 73.5879 82.0908 79.1583C82.0908 90.5925 91.1795 99.6812 102.614 99.6812C106.718 99.6814 110.236 98.5089 113.461 96.4564Z" fill="#F6B545"/>
<path d="M112.582 93.8184C110.529 95.2842 107.891 96.1638 105.252 96.7501C103.786 97.0434 102.613 98.2159 102.613 99.6818C106.718 99.6818 110.236 98.509 113.461 96.4568C113.168 95.5772 112.875 94.6979 112.582 93.8184Z" fill="#F19920"/>
<path d="M87.9545 64.793C84.4363 68.6043 82.0908 73.5884 82.0908 79.1588H82.3841C83.85 79.1588 85.0228 77.986 85.3158 76.5201C85.9021 72.4156 87.9545 68.8973 90.593 66.2588C89.7136 65.9656 88.8341 65.3793 87.9545 64.793Z" fill="#FFCB5B"/>
<path d="M76.2269 105.546C87.5614 105.546 96.7498 96.3573 96.7498 85.0228C96.7498 73.6884 87.5614 64.5 76.2269 64.5C64.8925 64.5 55.7041 73.6884 55.7041 85.0228C55.7041 96.3573 64.8925 105.546 76.2269 105.546Z" fill="#F6B545"/>
<path d="M73.2949 99.682C73.2949 101.734 73.5882 103.493 74.1745 105.546C74.7608 105.546 75.6404 105.546 76.2267 105.546C87.6608 105.546 96.7495 96.457 96.7495 85.0229C96.7495 82.9707 96.4562 81.2116 95.8699 79.1592C95.2836 79.1592 94.4041 79.1592 93.8178 79.1592C82.3836 79.1594 73.2949 88.2481 73.2949 99.682Z" fill="#F19920"/>
<path d="M76.2269 64.5C64.7928 64.5 55.7041 73.5887 55.7041 85.0228C55.7041 96.457 64.7928 105.546 76.2269 105.546C87.6611 105.546 96.7498 96.4567 96.7498 85.0228C96.7498 73.589 87.6611 64.5 76.2269 64.5ZM76.2269 99.6817C68.0178 99.6817 61.5678 93.2317 61.5678 85.0226C61.5678 76.8135 68.0178 70.3635 76.2269 70.3635C84.4361 70.3635 90.8861 76.8135 90.8861 85.0226C90.8861 93.2317 84.4361 99.6817 76.2269 99.6817Z" fill="#FFCB5B"/>
<path d="M76.2275 105.252C87.6617 105.546 96.7504 96.1638 96.7504 85.0229H96.4571C94.9912 85.0229 93.8184 86.1958 93.5254 87.6617C92.9391 91.7662 90.8867 95.5775 87.9549 98.2162C85.6095 100.562 82.3845 102.028 78.8662 102.614C77.4004 102.614 76.2275 103.786 76.2275 105.252Z" fill="#F6B545"/>
<path d="M76.227 64.7933C64.7928 64.5 55.7041 73.882 55.7041 85.0229H55.9974C57.4632 85.0229 58.6361 83.85 58.9291 82.3842C59.5154 78.2796 61.5678 74.4683 64.4995 71.8296C66.845 69.4842 70.07 68.0183 73.5882 67.4318C75.0544 67.4318 76.227 66.2592 76.227 64.7933Z" fill="#FFE27A"/>
<path d="M63.6198 87.0751C63.6198 78.8659 70.0698 72.4159 78.2789 72.4159C81.7972 72.4159 85.0222 73.5888 87.6607 75.9342C84.7289 72.4159 80.9174 70.3638 76.2265 70.3638C68.0174 70.3638 61.5674 76.8138 61.5674 85.0229C61.5674 89.7138 63.6195 93.5251 66.8445 96.1638C64.7926 93.8183 63.6198 90.5933 63.6198 87.0751Z" fill="#F19920"/>
<path d="M85.0224 94.1112C84.7291 94.1112 84.4361 94.1112 84.1428 93.8179C83.5566 93.2316 83.5566 92.3521 84.1428 91.7658C85.902 90.0066 86.7816 87.3679 86.7816 85.0225C86.7816 84.1429 87.3679 83.5566 88.2474 83.5566C89.127 83.5566 89.7133 84.1429 89.7133 85.0225C89.7133 88.2475 88.5405 91.4725 86.4883 93.8179C85.9017 94.1112 85.3154 94.1112 85.0224 94.1112Z" fill="#FFCB5B"/>
<path d="M76.2267 93.8182C74.4675 93.8182 73.2949 92.6453 73.2949 90.8864V79.1593C73.2949 77.4001 74.4678 76.2275 76.2267 76.2275C77.9858 76.2275 79.1584 77.4004 79.1584 79.1593V90.8864C79.1586 92.6453 77.9858 93.8182 76.2267 93.8182Z" fill="#F19920"/>
<path d="M89.7139 79.4525C90.3002 81.2116 90.8868 82.9707 90.8868 85.0229C90.8868 93.232 84.4368 99.682 76.2276 99.682C75.3481 99.682 74.1755 99.682 73.2959 99.3888V99.682C73.2959 101.734 73.5892 103.493 74.1755 105.546C74.7618 105.546 75.6413 105.546 76.2276 105.546C87.6618 105.546 96.7505 96.457 96.7505 85.0229C96.7505 82.9707 96.4572 81.2116 95.8709 79.1592C95.2846 79.1592 94.405 79.1592 93.8187 79.1592C92.3524 79.1594 91.1798 79.1594 89.7139 79.4525Z" fill="#F6B545"/>
<path d="M90.8861 123.137C102.221 123.137 111.409 113.949 111.409 102.614C111.409 91.2797 102.221 82.0913 90.8861 82.0913C79.5517 82.0913 70.3633 91.2797 70.3633 102.614C70.3633 113.949 79.5517 123.137 90.8861 123.137Z" fill="#F6B545"/>
<path d="M90.8861 82.0908C79.452 82.0908 70.3633 91.1795 70.3633 102.614C70.3633 114.048 79.452 123.136 90.8861 123.136C102.32 123.136 111.409 114.048 111.409 102.614C111.409 91.1795 102.32 82.0908 90.8861 82.0908ZM90.8861 117.273C82.677 117.273 76.227 110.823 76.227 102.614C76.227 94.4045 82.677 87.9545 90.8861 87.9545C99.0953 87.9545 105.545 94.4045 105.545 102.614C105.545 110.823 99.0953 117.273 90.8861 117.273Z" fill="#FFCB5B"/>
<path d="M90.8867 122.843C102.321 123.137 111.41 113.755 111.41 102.614H111.116C109.65 102.614 108.478 103.787 108.185 105.252C107.598 109.357 105.546 113.168 102.614 115.807C100.269 118.152 97.0437 119.618 93.5254 120.205C92.0596 120.205 90.8867 121.377 90.8867 122.843Z" fill="#F6B545"/>
<path d="M90.8861 82.3841C79.452 82.0909 70.3633 91.4728 70.3633 102.614H70.6566C72.1224 102.614 73.2953 101.441 73.5883 99.975C74.1746 95.8704 76.227 92.0591 79.1587 89.4204C81.5041 87.075 84.7291 85.6091 88.2474 85.0226C89.7135 85.0228 90.8861 83.85 90.8861 82.3841Z" fill="#FFE27A"/>
<path d="M78.2799 104.666C78.2799 96.4567 84.7299 90.0067 92.9391 90.0067C96.4574 90.0067 99.6824 91.1796 102.321 93.525C99.3891 90.0068 95.5775 87.9546 90.8867 87.9546C82.6775 87.9546 76.2275 94.4046 76.2275 102.614C76.2275 107.305 78.2797 111.116 81.5047 113.755C79.4525 111.409 78.2799 108.184 78.2799 104.666Z" fill="#F19920"/>
<path d="M99.6816 111.702C99.3883 111.702 99.0953 111.702 98.802 111.409C98.2157 110.822 98.2157 109.943 98.802 109.357C100.561 107.597 101.441 104.959 101.441 102.613C101.441 101.734 102.027 101.147 102.907 101.147C103.786 101.147 104.372 101.734 104.372 102.613C104.372 105.838 103.2 109.063 101.147 111.409C100.561 111.702 99.9749 111.702 99.6816 111.702Z" fill="#FFCB5B"/>
<path d="M90.8868 111.409C89.1277 111.409 87.9551 110.236 87.9551 108.478V96.7501C87.9551 94.9909 89.1279 93.8184 90.8868 93.8184C92.6459 93.8184 93.8185 94.9912 93.8185 96.7501V108.477C93.8188 110.236 92.6459 111.409 90.8868 111.409Z" fill="#F19920"/>
</g>
<defs>
<clipPath id="clip0">
<rect width="129" height="129" fill="white"/>
</clipPath>
</defs>
</svg>
