<svg width="93" height="95" viewBox="0 0 93 95" fill="none" xmlns="http://www.w3.org/2000/svg">
<path d="M89.4708 55.6444H88.0491V42.8388C88.0491 40.8115 87.0401 39.0166 85.4992 37.9259V36.1823C85.4992 33.6531 83.4416 31.5956 80.9124 31.5956H79.8509L83.9124 25.6359C85.2737 23.6383 84.756 20.9053 82.7584 19.5438L55.199 0.762736C54.2313 0.103117 53.065 -0.140321 51.9139 0.078068C50.7633 0.296086 49.7663 0.949025 49.1069 1.91684L25.3196 36.8225H18.7002L20.2972 20.6558C20.3152 20.4736 20.4336 20.3157 20.5987 20.2535C22.6563 19.4777 24.4394 18.029 25.6195 16.1743C25.7124 16.0282 25.8878 15.9447 26.0692 15.9631L36.4515 16.9888C37.1959 17.061 37.8581 16.5188 37.9316 15.7748C38.0051 15.0307 37.4616 14.3681 36.7176 14.2947L26.3353 13.269C25.1302 13.151 23.9809 13.7063 23.3352 14.7209C22.4676 16.0846 21.1565 17.1497 19.6437 17.7201C18.505 18.1494 17.7231 19.1721 17.6029 20.3895L15.9797 36.8223H14.2536L16.7793 11.2532C16.8702 10.3329 17.6916 9.65674 18.613 9.74896L39.5936 11.8215C40.3376 11.8933 41.0002 11.3515 41.0737 10.6075C41.1471 9.86344 40.6037 9.20085 39.8596 9.12737L18.8791 7.05482C16.4737 6.8175 14.3226 8.58112 14.0849 10.9869L12.0491 31.5956H8.58218C6.05317 31.5956 3.99546 33.6531 3.99546 36.1823V37.3717C1.92643 38.3243 0.48584 40.4158 0.48584 42.8388V88.9834C0.48584 92.301 3.1848 95 6.50257 95H82.0326C85.3502 95 88.0491 92.301 88.0491 88.9834V76.1781H89.4708C91.1489 76.1781 92.5139 74.813 92.5139 73.1351V58.6875C92.5141 57.0094 91.1489 55.6444 89.4708 55.6444ZM80.9124 34.3031C81.9489 34.3029 82.7918 35.1461 82.7918 36.1825V36.8722C82.5428 36.8407 82.2899 36.8227 82.0326 36.8227H76.289L78.0058 34.3031H80.9124ZM51.3441 3.44129C51.5964 3.07113 51.9777 2.82138 52.4178 2.73788C52.523 2.71803 52.6286 2.70801 52.7334 2.70801C53.0669 2.70801 53.3927 2.80783 53.6743 2.99969L81.2338 21.7807C81.9979 22.3016 82.196 23.3469 81.6754 24.111L73.013 36.8221H70.9341L75.1811 30.5901C75.8698 29.5795 75.9266 28.2933 75.3288 27.2332C74.5343 25.8249 74.2122 24.1667 74.4218 22.5638C74.5777 21.3712 74.0529 20.2071 73.0525 19.5254L58.7657 9.78941C57.7651 9.10752 56.4896 9.04499 55.4368 9.62631C54.0221 10.4075 52.3609 10.7142 50.7596 10.49C49.5721 10.3234 48.3677 10.8596 47.6892 11.8551L30.6747 36.8223H28.5958L51.3441 3.44129ZM51.9402 26.4289C46.0452 26.4289 41.2061 31.0254 40.8119 36.8223H33.9505L49.9259 13.3797C49.9261 13.3797 49.9261 13.3797 49.9261 13.3797C50.0168 13.2463 50.1673 13.1669 50.3219 13.1669C50.3425 13.1669 50.3631 13.1684 50.3837 13.1712C52.5616 13.4759 54.8206 13.0591 56.7451 11.9965C56.8965 11.9126 57.091 11.9247 57.2409 12.0267L71.5278 21.7629C71.6774 21.865 71.7596 22.0416 71.7373 22.2131C71.4521 24.3931 71.8904 26.6482 72.9708 28.5634C73.0575 28.7172 73.0469 28.9143 72.9441 29.0655L67.6583 36.8221H63.0691C62.6745 31.0254 57.8356 26.4289 51.9402 26.4289ZM60.3544 36.8225H43.5262C43.914 32.5198 47.5385 29.1364 51.9402 29.1364C56.3421 29.1362 59.9668 32.5198 60.3544 36.8225ZM6.70277 36.1823C6.70277 35.1459 7.54571 34.3027 8.58218 34.3027H11.7817L11.5329 36.8223H6.70277V36.1823ZM3.19315 42.8388C3.19315 41.0142 4.67772 39.5296 6.50257 39.5296H82.0326C83.8574 39.5296 85.3418 41.0142 85.3418 42.8388V46.595H3.19315V42.8388ZM85.3418 88.9834C85.3418 90.8081 83.8574 92.2926 82.0326 92.2926H6.50257C4.67772 92.2926 3.19315 90.8081 3.19315 88.9834V85.2272H10.4929C11.2407 85.2272 11.8465 84.6212 11.8465 83.8736C11.8465 83.1261 11.2405 82.5201 10.4929 82.5201H3.19315V49.3024H85.3418V55.6444H72.4712H72.471C68.4157 55.6444 64.9029 58.0082 63.2358 61.4299C63.2302 61.4414 63.2239 61.4525 63.2181 61.464C63.204 61.4932 63.1918 61.5234 63.178 61.5527C62.9795 61.9745 62.807 62.4111 62.6665 62.8616C62.6661 62.8629 62.6657 62.864 62.6654 62.8653C62.3657 63.8281 62.2041 64.851 62.2041 65.9112C62.2041 71.5724 66.8098 76.1781 72.4708 76.1781H72.471H85.3416V82.5201H19.1606C18.4128 82.5201 17.807 83.1261 17.807 83.8736C17.807 84.6212 18.413 85.2272 19.1606 85.2272H85.3418V88.9834ZM89.8068 73.1349C89.8068 73.3201 89.6561 73.4708 89.4708 73.4708H72.4713C69.6056 73.4708 67.107 71.8678 65.8254 69.5116C65.7672 69.4045 65.7115 69.2958 65.6582 69.1857C65.5519 68.9655 65.456 68.7393 65.3712 68.5078C65.074 67.6977 64.9118 66.823 64.9118 65.9112C64.9118 64.9994 65.0742 64.1248 65.3712 63.3147C65.4562 63.0833 65.5521 62.8571 65.6582 62.6367C65.7115 62.5267 65.7672 62.4179 65.8254 62.3109C67.107 59.9546 69.6056 58.3517 72.4713 58.3517H89.4708C89.656 58.3517 89.8068 58.5023 89.8068 58.6875V73.1349Z" fill="#A1BE8B"/>
</svg>
