<svg width="54" height="54" viewBox="0 0 54 54" fill="none" xmlns="http://www.w3.org/2000/svg">
<rect width="54" height="54" rx="27" fill="#E5E5E5"/>
<path d="M34.36 23H33V21C33.0217 20.4923 32.8413 19.9967 32.4983 19.6219C32.1553 19.247 31.6776 19.0234 31.17 19H22.83C22.3224 19.0234 21.8448 19.247 21.5018 19.6219C21.1587 19.9967 20.9783 20.4923 21 21V23H19.64C18.9363 23.0053 18.2633 23.2892 17.7685 23.7897C17.2737 24.2901 16.9974 24.9662 17 25.67V32.33C16.9974 33.0338 17.2737 33.7099 17.7685 34.2103C18.2633 34.7108 18.9363 34.9947 19.64 35H20.5C20.5 35.5304 20.7107 36.0391 21.0858 36.4142C21.4609 36.7893 21.9696 37 22.5 37H31.5C32.0305 37 32.5392 36.7893 32.9142 36.4142C33.2893 36.0391 33.5 35.5304 33.5 35H34.36C35.0638 34.9947 35.7367 34.7108 36.2315 34.2103C36.7264 33.7099 37.0027 33.0338 37 32.33V25.67C37.0027 24.9662 36.7264 24.2901 36.2315 23.7897C35.7367 23.2892 35.0638 23.0053 34.36 23ZM23 21H31V23H23V21ZM22.5 35V31H31.5V35H22.5ZM35 32.33C35.0027 32.5034 34.9371 32.6708 34.8174 32.7962C34.6976 32.9216 34.5333 32.9948 34.36 33H33.5V31C33.5 30.4696 33.2893 29.9609 32.9142 29.5858C32.5392 29.2107 32.0305 29 31.5 29H22.5C21.9696 29 21.4609 29.2107 21.0858 29.5858C20.7107 29.9609 20.5 30.4696 20.5 31V33H19.64C19.4667 32.9948 19.3024 32.9216 19.1827 32.7962C19.0629 32.6708 18.9973 32.5034 19 32.33V25.67C18.9973 25.4966 19.0629 25.3292 19.1827 25.2038C19.3024 25.0784 19.4667 25.0052 19.64 25H34.36C34.5333 25.0052 34.6976 25.0784 34.8174 25.2038C34.9371 25.3292 35.0027 25.4966 35 25.67V32.33Z" fill="#65B4A1"/>
</svg>
