<svg width="54" height="54" viewBox="0 0 54 54" fill="none" xmlns="http://www.w3.org/2000/svg">
<rect width="54" height="54" rx="27" fill="#E5E5E5"/>
<path d="M34.74 23.33L29.3 17.33C29.2065 17.2264 29.0924 17.1435 28.9649 17.0867C28.8375 17.0299 28.6995 17.0003 28.56 17H21.56C21.2277 16.996 20.898 17.0576 20.5895 17.1811C20.281 17.3045 19.9999 17.4876 19.7622 17.7198C19.5245 17.9519 19.3348 18.2286 19.204 18.5341C19.0732 18.8395 19.0039 19.1677 19 19.5V34.5C19.0039 34.8322 19.0732 35.1605 19.204 35.4659C19.3348 35.7714 19.5245 36.0481 19.7622 36.2802C19.9999 36.5124 20.281 36.6954 20.5895 36.8189C20.898 36.9424 21.2277 37.004 21.56 37H32.44C32.7723 37.004 33.102 36.9424 33.4105 36.8189C33.719 36.6954 34.0001 36.5124 34.2378 36.2802C34.4755 36.0481 34.6652 35.7714 34.796 35.4659C34.9268 35.1605 34.9961 34.8322 35 34.5V24C34.9994 23.7522 34.9067 23.5134 34.74 23.33ZM32.65 24H28.71C28.5038 23.9797 28.3139 23.8792 28.1811 23.7202C28.0483 23.5613 27.9833 23.3565 28 23.15V19H28.11L32.65 24ZM32.44 35H21.56C21.4904 35.004 21.4206 34.9943 21.3548 34.9714C21.2889 34.9484 21.2282 34.9127 21.1762 34.8662C21.1242 34.8198 21.0818 34.7635 21.0516 34.7007C21.0214 34.6378 21.0038 34.5696 21 34.5V19.5C21.0038 19.4304 21.0214 19.3622 21.0516 19.2993C21.0818 19.2365 21.1242 19.1802 21.1762 19.1338C21.2282 19.0873 21.2889 19.0516 21.3548 19.0286C21.4206 19.0057 21.4904 18.9959 21.56 19H26V23.15C25.9839 23.8866 26.2598 24.5997 26.7675 25.1337C27.2752 25.6676 27.9735 25.979 28.71 26H33V34.5C32.9962 34.5696 32.9786 34.6378 32.9484 34.7007C32.9182 34.7635 32.8758 34.8198 32.8238 34.8662C32.7718 34.9127 32.7111 34.9484 32.6452 34.9714C32.5794 34.9943 32.5096 35.004 32.44 35Z" fill="#65B4A1"/>
</svg>
