<svg width="20" height="21" viewBox="0 0 20 21" fill="none" xmlns="http://www.w3.org/2000/svg">
<path fill-rule="evenodd" clip-rule="evenodd" d="M5.87771 0.0593109C6.94281 0.0197701 8.31689 0 10 0C11.6831 0 13.0572 0.0197701 14.1223 0.0593109C15.0296 0.0988517 15.8383 0.257012 16.5483 0.533798C17.2321 0.797403 17.8238 1.17963 18.3235 1.68048C18.8231 2.18133 19.2045 2.77443 19.4675 3.4598C19.7436 4.17154 19.9014 4.98211 19.9408 5.89155C19.9803 6.95915 20 8.33647 20 10.0235C20 11.7106 19.9803 13.0879 19.9408 14.1555C19.9014 15.065 19.7436 15.8755 19.4675 16.5873C19.2045 17.2727 18.8231 17.8658 18.3235 18.3666C17.8238 18.8675 17.2321 19.2497 16.5483 19.5133C15.8383 19.7901 15.0296 19.9482 14.1223 19.9878C13.0572 20.0273 11.6831 20.0471 10 20.0471C8.31689 20.0471 6.94281 20.0273 5.87771 19.9878C4.97041 19.9482 4.16174 19.7901 3.45168 19.5133C2.76791 19.2497 2.1762 18.8675 1.67653 18.3666C1.17685 17.8658 0.795531 17.2727 0.532544 16.5873C0.256409 15.8755 0.0986195 15.065 0.0591716 14.1555C0.0197237 13.0879 0 11.7106 0 10.0235C0 8.33647 0.0197237 6.95915 0.0591716 5.89155C0.0986195 4.98211 0.256409 4.17154 0.532544 3.4598C0.795531 2.77443 1.17685 2.18133 1.67653 1.68048C2.1762 1.17963 2.76791 0.797403 3.45168 0.533798C4.16174 0.257012 4.97041 0.0988517 5.87771 0.0593109ZM14.2801 1.36412C13.1755 1.32458 11.7489 1.30481 10 1.30481C8.25114 1.30481 6.82446 1.32458 5.71992 1.36412C5.00986 1.39048 4.3524 1.51569 3.74753 1.73976C2.80078 2.13516 2.13018 2.80735 1.7357 3.75633C1.51216 4.36262 1.38724 5.02162 1.36094 5.73336C1.3215 6.8405 1.30177 8.27054 1.30177 10.0235C1.30177 11.7765 1.3215 13.2065 1.36094 14.3137C1.38724 15.0254 1.51216 15.6844 1.7357 16.2907C2.13018 17.2397 2.80078 17.9119 3.74753 18.3073C4.3524 18.5313 5.00986 18.6565 5.71992 18.6829C6.82446 18.7224 8.25114 18.7422 10 18.7422C11.7489 18.7422 13.1755 18.7224 14.2801 18.6829C14.9901 18.6565 15.6476 18.5313 16.2525 18.3073C17.1992 17.9119 17.8698 17.2397 18.2643 16.2907C18.4878 15.6844 18.6128 15.0254 18.6391 14.3137C18.6785 13.2065 18.6982 11.7765 18.6982 10.0235C18.6982 8.27054 18.6785 6.8405 18.6391 5.73336C18.6128 5.02162 18.4878 4.36262 18.2643 3.75633C17.8698 2.80735 17.1992 2.13516 16.2525 1.73976C15.6476 1.51569 14.9901 1.39048 14.2801 1.36412ZM7.15977 12.8705C7.94873 13.6481 8.89547 14.0369 10 14.0369C11.1045 14.0369 12.048 13.6448 12.8304 12.8606C13.6128 12.0764 14.004 11.1307 14.004 10.0236C14.004 8.91642 13.6128 7.97075 12.8304 7.18653C12.048 6.4023 11.1045 6.01019 10 6.01019C8.89547 6.01019 7.95202 6.4023 7.16963 7.18653C6.38725 7.97075 5.99606 8.91642 5.99606 10.0236C5.99606 11.1307 6.38396 12.0797 7.15977 12.8705ZM6.37081 6.38578C7.37016 5.38408 8.57987 4.88324 10 4.88324C11.4201 4.88324 12.6298 5.38408 13.6292 6.38578C14.6285 7.38748 15.1282 8.60005 15.1282 10.0235C15.1282 11.447 14.6285 12.6596 13.6292 13.6613C12.6298 14.663 11.4201 15.1638 10 15.1638C8.57987 15.1638 7.37016 14.663 6.37081 13.6613C5.37146 12.6596 4.8718 11.447 4.8718 10.0235C4.8718 8.60005 5.37146 7.38748 6.37081 6.38578ZM16.1736 3.83541C16.4234 4.07266 16.5483 4.35603 16.5483 4.68554C16.5483 5.01504 16.43 5.29512 16.1933 5.52577C15.9566 5.75643 15.6673 5.87175 15.3254 5.87175C14.9967 5.87175 14.7173 5.75643 14.4872 5.52577C14.2571 5.29512 14.142 5.01504 14.142 4.68554C14.142 4.34285 14.2571 4.05289 14.4872 3.81564C14.7173 3.5784 14.9967 3.45978 15.3254 3.45978C15.6542 3.45978 15.9369 3.58499 16.1736 3.83541Z" fill="white"/>
</svg>
