<svg width="20" height="20" viewBox="0 0 20 20" fill="none" xmlns="http://www.w3.org/2000/svg">
<path d="M16.9841 13.3893L16.7859 13.0655C16.3986 12.4329 15.9298 11.8527 15.3926 11.3411L14.7299 10.7101C14.6669 10.6501 14.6575 10.5549 14.7074 10.4837L15.6123 9.1943C15.7428 9.00836 15.8632 8.81254 15.9702 8.6123L16.7434 7.16555C16.8782 6.91344 16.871 6.61645 16.7241 6.37113C16.5773 6.12586 16.3189 5.97918 16.033 5.97887L14.3594 5.97695C14.3591 5.97695 14.3587 5.97695 14.3584 5.97695C14.0078 5.97695 13.6902 6.18434 13.5493 6.50543L13.3721 6.90934C12.9198 7.93984 12.3025 8.87945 11.5366 9.70328V6.75457C11.5366 6.32559 11.1876 5.97656 10.7586 5.97656H8.38828C7.99906 5.97656 7.68246 6.2932 7.68246 6.68242C7.68246 6.83105 7.72828 6.97344 7.81492 7.09406L7.98078 7.32512C8.1434 7.55156 8.22933 7.81863 8.22933 8.09746V10.2521C7.93703 9.91262 7.58113 9.4516 7.27984 8.92156C6.81848 8.10984 6.48777 7.16332 6.33172 6.67133C6.19988 6.25578 5.81848 5.97656 5.38258 5.97656H3.6875C3.44828 5.97656 3.22828 6.08594 3.08375 6.27664C2.93934 6.46738 2.89367 6.70887 2.95855 6.93922L3.27476 8.06148C3.46855 8.74941 3.73496 9.4191 4.06656 10.052C4.16664 10.243 4.40266 10.3168 4.59383 10.2167C4.78496 10.1166 4.85867 9.88051 4.75855 9.68941C4.45211 9.10445 4.2059 8.48547 4.02676 7.84965L3.71914 6.75781H5.38262C5.47648 6.75781 5.55863 6.81797 5.58703 6.90754C5.75238 7.42875 6.10394 8.43371 6.6007 9.30758C7.00828 10.0246 7.50277 10.622 7.8459 10.9968C8.03387 11.2021 8.32308 11.2698 8.58269 11.1688C8.84262 11.0679 9.01058 10.8224 9.01058 10.5436V8.09746C9.01058 7.65414 8.8739 7.22949 8.61543 6.86945L8.53523 6.75781H10.7554V9.89043C10.7554 10.1196 10.8704 10.3304 11.0632 10.4543C11.2559 10.5782 11.4954 10.5954 11.7039 10.5002L11.865 10.4266C11.9392 10.3928 12.0051 10.3456 12.061 10.2863C12.9087 9.38602 13.5905 8.35547 14.0875 7.22324L14.2648 6.81934C14.2811 6.78215 14.3178 6.75816 14.3584 6.75816H14.3585L16.0321 6.76008C16.0378 6.76008 16.0465 6.76012 16.0538 6.77238C16.0612 6.78469 16.0571 6.79227 16.0545 6.7973L15.2812 8.24402C15.189 8.41656 15.0852 8.58527 14.9728 8.74551L14.068 10.0349C13.7941 10.4252 13.8459 10.9471 14.1912 11.2759L14.8538 11.9069C15.3419 12.3716 15.7678 12.8987 16.1197 13.4735L16.3179 13.7973C16.3227 13.805 16.3371 13.8288 16.3191 13.861C16.3011 13.8932 16.2732 13.8932 16.2641 13.8932H14.8193C14.6336 13.8932 14.4529 13.8169 14.3235 13.6838L12.8787 12.1982C12.5382 11.8482 12.1062 11.6077 11.6292 11.503C11.4154 11.4561 11.1947 11.5078 11.024 11.6451C10.8533 11.7824 10.7554 11.9868 10.7554 12.2058V13.6654C10.7554 13.791 10.6532 13.8932 10.5275 13.8932C9.40793 13.8932 8.30156 13.5186 7.41223 12.8384C7.05394 12.5644 6.71223 12.2622 6.39656 11.9402C6.24555 11.7863 5.99824 11.7837 5.84414 11.9348C5.69008 12.0858 5.68766 12.3332 5.83867 12.4872C6.18019 12.8355 6.54992 13.1625 6.93758 13.459C7.96238 14.2428 9.2373 14.6745 10.5275 14.6745C11.0839 14.6745 11.5366 14.2218 11.5366 13.6654V12.2844C11.8341 12.3638 12.1031 12.5213 12.3186 12.743L13.7634 14.2285C14.039 14.5119 14.4239 14.6745 14.8193 14.6745H16.2641C16.5693 14.6745 16.8516 14.5091 17.0007 14.2429C17.1498 13.9766 17.1435 13.6496 16.9841 13.3893Z" fill="white"/>
<path d="M5.47075 10.8417L5.46641 10.8357C5.34067 10.6603 5.09669 10.6201 4.92133 10.7458C4.74602 10.8716 4.70579 11.1156 4.83149 11.2909C4.83165 11.2912 4.83399 11.2944 4.83415 11.2946L5.15329 11.0693L4.83583 11.2969C4.91212 11.4034 5.032 11.46 5.15364 11.46C5.23239 11.46 5.31196 11.4362 5.38091 11.3868C5.55622 11.261 5.59645 11.017 5.47075 10.8417Z" fill="white"/>
<path d="M8.00244 17.3438H4.81885C4.60314 17.3438 4.42822 17.5186 4.42822 17.7344C4.42822 17.9501 4.60314 18.125 4.81885 18.125H8.00244C8.21818 18.125 8.39307 17.9501 8.39307 17.7344C8.39307 17.5186 8.21814 17.3438 8.00244 17.3438Z" fill="white"/>
<path d="M9.78004 17.3438H9.77539C9.55969 17.3438 9.38477 17.5186 9.38477 17.7344C9.38477 17.9501 9.55969 18.125 9.77539 18.125H9.78004C9.99578 18.125 10.1707 17.9501 10.1707 17.7344C10.1707 17.5186 9.99574 17.3438 9.78004 17.3438Z" fill="white"/>
<path d="M17.4219 0H2.57812C1.15652 0 0 1.15652 0 2.57812V17.4219C0 18.8435 1.15652 20 2.57812 20H17.4219C18.8435 20 20 18.8435 20 17.4219V2.57812C20 1.15652 18.8435 0 17.4219 0ZM19.2188 17.4219C19.2188 18.4127 18.4127 19.2188 17.4219 19.2188H2.57812C1.58734 19.2188 0.78125 18.4127 0.78125 17.4219V2.57812C0.78125 1.58734 1.58734 0.78125 2.57812 0.78125H17.4219C18.4127 0.78125 19.2188 1.58734 19.2188 2.57812V17.4219Z" fill="white"/>
</svg>
