<svg width="97" height="97" viewBox="0 0 97 97" fill="none" xmlns="http://www.w3.org/2000/svg">
<path d="M90.5317 1.61658H6.46831C2.90185 1.61658 0 4.51862 0 8.08489V61.4332C0 62.3255 0.724279 63.0498 1.6166 63.0498H95.3832C96.2755 63.0498 96.9998 62.3255 96.9998 61.4332V8.08489C97 4.51862 94.0981 1.61658 90.5317 1.61658ZM93.7666 59.8166H3.2334V8.08489C3.2334 6.30005 4.68518 4.84997 6.46831 4.84997H90.5317C92.3148 4.84997 93.7666 6.30005 93.7666 8.08489V59.8166Z" fill="#A1BE8B"/>
<path d="M95.3834 59.8167H1.6166C0.724279 59.8167 0 60.5409 0 61.4333V69.5149C0 73.0814 2.90185 75.9833 6.46831 75.9833H90.5317C94.0981 75.9833 97 73.0814 97 69.5149V61.4333C97 60.5409 96.2757 59.8167 95.3834 59.8167ZM93.7666 69.5151C93.7666 71.3 92.3148 72.75 90.5317 72.75H6.46831C4.68518 72.75 3.2334 71.3 3.2334 69.5151V63.05H93.7668V69.5151H93.7666Z" fill="#A1BE8B"/>
<path d="M53.3498 66.2834H43.6498C42.7575 66.2834 42.0332 67.0077 42.0332 67.9C42.0332 68.7924 42.7575 69.5167 43.6498 69.5167H53.3498C54.2421 69.5167 54.9664 68.7924 54.9664 67.9C54.9664 67.0077 54.2421 66.2834 53.3498 66.2834Z" fill="#A1BE8B"/>
<path d="M88.9166 8.0835H8.0834C7.19108 8.0835 6.4668 8.80778 6.4668 9.7001V61.4335C6.4668 62.3258 7.19108 63.0501 8.0834 63.0501H88.9168C89.8091 63.0501 90.5334 62.3258 90.5334 61.4335V9.7001C90.5334 8.80778 89.8091 8.0835 88.9166 8.0835ZM87.3 59.8167H9.7V11.3167H87.3V59.8167Z" fill="#A1BE8B"/>
<path d="M69.5165 85.6833H27.4833C24.8094 85.6833 22.6333 87.8594 22.6333 90.5334C22.6333 93.2073 24.8094 95.3834 27.4833 95.3834H69.5167C72.1906 95.3834 74.3667 93.2073 74.3667 90.5334C74.3667 87.8594 72.1904 85.6833 69.5165 85.6833ZM69.5165 92.15H27.4833C26.591 92.15 25.8667 91.4242 25.8667 90.5334C25.8667 89.6425 26.591 88.9167 27.4833 88.9167H69.5167C70.409 88.9167 71.1333 89.6425 71.1333 90.5334C71.1333 91.4242 70.409 92.15 69.5165 92.15Z" fill="#A1BE8B"/>
<path d="M66.2833 85.6833C60.9191 85.6833 58.1999 81.8761 58.1999 74.3667C58.1999 73.4744 57.4756 72.7501 56.5833 72.7501H40.4167C39.5244 72.7501 38.8001 73.4744 38.8001 74.3667C38.8001 81.8761 36.0809 85.6833 30.7167 85.6833C29.8244 85.6833 29.1001 86.4076 29.1001 87.2999C29.1001 88.1923 29.8244 88.9165 30.7167 88.9165H66.2833C67.1756 88.9165 67.8999 88.1923 67.8999 87.2999C67.8999 86.4076 67.1756 85.6833 66.2833 85.6833ZM38.5913 85.6833C40.5815 83.4783 41.7535 80.1947 41.9895 75.9833H55.0118C55.2461 80.1947 56.4183 83.4783 58.41 85.6833H38.5913Z" fill="#A1BE8B"/>
<path d="M77.251 49.2501L73.3485 45.3475L75.5196 43.1764C75.9222 42.7738 76.0838 42.1886 75.9447 41.6373C75.8057 41.086 75.387 40.6495 74.8421 40.4846L58.6755 35.6346C58.1049 35.4632 57.489 35.62 57.0686 36.0404C56.6466 36.4608 56.4915 37.0783 56.6627 37.6474L61.5128 53.814C61.6761 54.3604 62.1141 54.7791 62.6654 54.9181C63.215 55.054 63.8019 54.8954 64.2045 54.493L66.4904 52.2054L70.393 56.1096C70.6954 56.4135 71.1076 56.5832 71.536 56.5832C71.9643 56.5832 72.3766 56.4135 72.6789 56.1096L77.2508 51.536C77.883 50.904 77.883 49.8823 77.251 49.2501ZM71.536 52.6807L67.9826 49.1256C67.5703 48.7133 67.0304 48.508 66.4904 48.508C65.9488 48.508 65.4089 48.7149 64.9983 49.1239L63.8311 50.2911L60.6219 39.5936L71.3194 42.8028L70.0681 44.0541C69.7237 44.4001 69.5346 44.8593 69.5346 45.3475C69.5346 45.8374 69.7254 46.2997 70.0713 46.6424L73.8219 50.393L71.536 52.6807Z" fill="#A1BE8B"/>
<path d="M67.8998 14.5499H22.6332C21.7409 14.5499 21.0166 15.2742 21.0166 16.1665V24.2499C21.0166 25.1423 21.7409 25.8665 22.6332 25.8665H67.8998C68.7921 25.8665 69.5164 25.1423 69.5164 24.2499V16.1665C69.5164 15.2742 68.7921 14.5499 67.8998 14.5499ZM66.2832 22.6333H24.2498V17.7833H66.2832V22.6333Z" fill="#A1BE8B"/>
<path d="M42.0334 32.3334H29.1C28.2077 32.3334 27.4834 33.0577 27.4834 33.95V40.4166C27.4834 41.3089 28.2077 42.0332 29.1 42.0332H42.0334C42.9257 42.0332 43.65 41.3089 43.65 40.4166V33.95C43.65 33.0577 42.9257 32.3334 42.0334 32.3334ZM40.4166 38.8H30.7166V35.5666H40.4166V38.8Z" fill="#A1BE8B"/>
<path d="M67.8998 14.5499H22.6332C21.7409 14.5499 21.0166 15.2742 21.0166 16.1665V46.8831C21.0166 47.7755 21.7409 48.4997 22.6332 48.4997H61.1197C61.6321 48.4997 62.1122 48.2589 62.4163 47.8482C62.7219 47.4377 62.8156 46.9074 62.6684 46.4175L60.6218 39.5935L67.436 41.6387C67.9259 41.7859 68.4562 41.6921 68.8651 41.3865C69.2756 41.0827 69.5166 40.6009 69.5166 40.0899V16.1665C69.5164 15.2742 68.7921 14.5499 67.8998 14.5499ZM66.2832 37.9173L58.6734 35.6345C58.1028 35.4631 57.4869 35.62 57.0665 36.0404C56.6446 36.4623 56.4894 37.0782 56.6607 37.649L58.9466 45.2667H24.2498V17.7833H66.2832V37.9173Z" fill="#A1BE8B"/>
</svg>
